<?xml version="1.0" encoding="utf-8"?>
<!-- Generator: Adobe Illustrator 16.0.0, SVG Export Plug-In . SVG Version: 6.00 Build 0)  -->
<!DOCTYPE svg PUBLIC "-//W3C//DTD SVG 1.1//EN" "http://www.w3.org/Graphics/SVG/1.1/DTD/svg11.dtd">
<svg version="1.1" id="Layer_1" xmlns="http://www.w3.org/2000/svg" xmlns:xlink="http://www.w3.org/1999/xlink" x="0px" y="0px"
	 width="298px" height="117px" viewBox="101.5 90.5 298 117" enable-background="new 101.5 90.5 298 117" xml:space="preserve">
<g>
	<path fill="#88C652" d="M190.951,185.561l-0.332-2.369l-0.898,2.211c-0.12,0.299-2.915,6.807-14.236,6.807
		c-1.207,0-2.508-0.073-3.916-0.236c-8.647-1.002-14.561-2.955-22.585-6.082c-0.859-0.334-1.71-0.664-2.555-0.99
		c-2.392-0.922-4.723-1.791-6.99-2.547c-2.548-0.851-5.017-1.557-7.383-1.998c-2.777-0.519-5.292-0.877-7.48-1.064
		c-0.252-0.021-0.481-0.031-0.725-0.049l-0.014-0.01c0,0-2.199-0.353-4.96,0.009c-1.314,0.131-2.399,0.383-3.245,0.764
		c-1.511,0.535-3.012,1.353-4.287,2.615c-5.116,5.069-2.553,15.616,24.106,6.675c-2.604-1.346-5.329-2.273-7.545-2.891
		c-1.103,0.328-2.256,0.66-3.469,0.992c-12.267,3.369-13.191-1.737-7.185-3.26c0.172-0.045,0.346-0.082,0.521-0.117
		c0.078-0.019,0.157-0.035,0.238-0.051c0.256-0.05,0.514-0.094,0.773-0.134c0.096-0.015,0.193-0.026,0.292-0.039
		c0.201-0.026,0.403-0.053,0.607-0.073c2.353-0.224,5.328-0.053,8.848,0.797c0.927,0.233,1.862,0.51,2.802,0.817
		c1.636,0.536,3.289,1.174,4.951,1.89c0.069,0.029,0.137,0.06,0.206,0.09c0.661,0.285,1.324,0.586,1.987,0.895
		c3.596,1.668,7.218,3.612,10.79,5.533c8.542,4.597,14.991,8.07,23.101,8.768c0.432,0.037,0.86,0.063,1.288,0.076
		c0.35,0.012,0.696,0.018,1.036,0.018c5.872,0,10.264-1.713,13.065-5.102C191.869,192.527,190.991,185.842,190.951,185.561z"/>
	<path fill="#88C652" d="M120.528,176.369l6.495,0.39c0,0-12.542-9.295-13.077-29.568c-0.027-1.022-0.084-2.062-0.08-3.143
		c0.168-6.492,2.284-14.166,6.237-22.209c6.431-13.086,19.474-22.585,31.016-22.585c0.487,0,0.958,0.032,1.428,0.066
		c0.265,0.019,0.527,0.043,0.786,0.074c0.332,0.039,0.653,0.087,0.972,0.141c0.17,0.029,0.344,0.052,0.512,0.086
		c1.143,0.221,2.193,0.523,3.151,0.879c0.99,0.368,1.877,0.787,2.665,1.224c2.942,1.629,4.475,3.461,4.475,3.461l-0.017,0.007
		c1.94,2.099,3.4,4.839,4.285,8.192c5.789,21.939-5.931,51.667-20.276,63.589c-2.238,1.858-4.509,3.207-6.743,4.051
		c2.172,0.819,4.402,1.736,6.67,2.682c5.708-2.104,10.213-5.016,13.684-7.945c0.034-0.027,0.065-0.053,0.1-0.08
		c0.21-0.176,0.411-0.356,0.616-0.535c0.049-0.043,0.102-0.086,0.15-0.129c1.28-1.121,2.463-2.309,3.556-3.541
		c0.065-0.072,0.132-0.145,0.196-0.217c0.089-0.103,0.178-0.205,0.266-0.308c0.402-0.464,0.785-0.918,1.132-1.353
		c0.075-0.101,0.143-0.205,0.217-0.307c8.501-10.941,10.642-24.048,10.642-24.048v-0.06c0.994-4.755,1.48-9.679,1.395-14.69
		c-0.109-6.488-1.574-18.765-10.258-26.352l0.007-0.001c-5.285-4.676-11.363-6.456-15.316-7.135v-0.001c0,0-0.033-0.005-0.081-0.012
		c-1.757-0.297-3.082-0.377-3.714-0.398c-1.035-0.068-2.155-0.101-3.194-0.046c-0.118,0.006-0.216,0.018-0.321,0.028
		c-0.56,0.014-1.11,0.017-1.689,0.053c-25.242,1.554-39.37,24.765-41.339,40.75c-0.25,2.028-0.354,3.991-0.344,5.887l-0.01-0.001
		C104.721,143.264,103.949,162.999,120.528,176.369z"/>
</g>
<g>
	<g>
		<path fill="#88C652" d="M370.229,167.077c0.121,0.498,0.265,0.983,0.436,1.452c0.002,0.005,0.004,0.009,0.005,0.014
			c-0.054-0.182-0.109-0.363-0.163-0.545C370.412,167.686,370.321,167.379,370.229,167.077z"/>
		<path fill="#88C652" d="M371.348,150.818l-0.005-0.018c0,0-0.495,1.667-0.942,4.109c0.17-0.738,0.333-1.473,0.487-2.199
			C371.024,152.068,371.184,151.441,371.348,150.818z"/>
		<path fill="#88C652" d="M396.204,157.501c-0.038-0.067-0.096-0.123-0.167-0.155c-0.27-0.125-1.18-0.531-1.623-0.531
			c-0.294,0-0.417,0.16-0.465,0.254c-0.043,0.088-0.051,0.162-0.088,0.527c-0.705,6.92-3.411,10.973-5.556,13.153
			c-0.426,0.427-0.819,0.795-1.224,1.142c-0.457,0.391-0.93,0.762-1.407,1.105c-2.867,2.066-5.614,2.73-8.503,2.045
			c-4.383-1.035-6.755-5.995-6.78-10.17c1.279,0.413,2.654,0.621,4.093,0.621c0.43,0,0.836-0.02,1.194-0.049
			c0.81-0.021,1.607-0.149,2.359-0.375c0.301-0.075,0.481-0.133,0.481-0.133c0.048-0.015,0.088-0.039,0.12-0.07
			c1.513-0.567,2.903-1.532,4.14-2.869c3.039-3.29,5.08-7.4,6.066-12.22c0.728-3.545,0.667-6.218-0.192-8.667
			c-0.323-0.92-0.752-1.651-1.312-2.234c-0.013-0.017-0.025-0.033-0.041-0.048c-0.004-0.003-0.065-0.062-0.069-0.065
			c-0.745-0.688-4.755-4.13-10.541-4.305c-2.953,0.055-5.404,1.348-7.717,4.069c-3.298,3.881-5.671,8.517-7.053,13.779
			c-0.157,0.598-0.311,1.197-0.441,1.812c-0.146,0.687-0.301,1.382-0.464,2.095c-0.589,3.207-1.094,7.838-0.15,11.708l0.416,1.388
			c0.411,1.379,0.868,2.84,1.519,4.229c2.368,5.056,7.12,8.073,12.712,8.073c0.586,0,1.189-0.032,1.794-0.1
			c5.117-0.564,9.366-3.098,13.375-7.97c3.105-3.776,4.928-8.502,5.73-14.872C396.46,158.277,396.379,157.818,396.204,157.501z
			 M370.565,162.184c-0.291-0.306-0.306-0.789-0.284-1.18c0.25-5.089,1.559-10.023,4.001-15.085
			c0.652-1.355,1.458-2.655,2.249-3.934c0.34-0.548,0.68-1.095,1.008-1.647c0.104-0.178,0.249-0.353,0.428-0.516
			c0.691-0.64,1.406-1.302,2.379-1.302c0.225,0,0.451,0.035,0.679,0.105c1.129,0.346,1.301,1.323,1.452,2.189l0.062,0.328
			c0.08,0.405,0.101,0.812,0.124,1.282c0.012,0.229,0.023,0.475,0.045,0.689c-0.504,6.341-2.582,11.928-6.175,16.608
			c-1.166,1.52-2.727,2.428-4.636,2.703C371.238,162.52,370.827,162.46,370.565,162.184z"/>
		<path fill="#88C652" d="M292.355,145.025c-0.269-1.018-0.828-1.677-1.612-1.93l-0.002-0.01l-0.185-0.078
			c-0.654-0.328-0.851-1.063-0.935-1.377c-0.621-2.309-1.849-4.103-3.646-5.332c-1.641-1.119-3.775-1.736-6.017-1.736
			c-2.513,0-4.996,0.758-6.991,2.135c-3.761,2.593-6.544,6.295-9.021,12.001c-1.166,2.682-1.835,5.536-2.421,8.239
			c-0.193,0.994-0.463,2.578-0.629,4.476c-0.098,1.092-0.149,2.159-0.155,3.173l-0.009,0.02v0.096
			c0.01,2.188,0.244,5.438,1.322,8.531c0.116,0.334,0.248,0.664,0.407,1.051l0.279,0.609c0.896,1.869,2.051,3.323,3.534,4.443
			c1.895,1.428,4.299,2.184,6.953,2.184c3.885,0,7.713-1.635,10.24-4.371c1.172-1.271,2.243-2.633,3.182-4.051
			c1.177-1.777,2.123-3.594,2.893-5.553c0.098-0.249,0.211-0.438,0.346-0.576l0.106-0.167c0.571-1.513,1.063-3.141,1.469-4.866
			c0.111-0.648,0.224-1.276,0.335-1.891c0.192-1.068,0.367-2.087,0.518-3.1l0.039-0.254c0.023-0.152,0.049-0.307,0.067-0.457
			C292.922,152.463,292.902,148.709,292.355,145.025z M283.857,161.77c0.375,0.849,0.914,1.627,1.49,2.459
			c0.269,0.386,0.541,0.779,0.807,1.195c0.025,0.038,0.027,0.085,0.008,0.126c-1.404,2.832-2.879,5.531-5.46,7.429
			c-2.335,1.711-4.532,2.056-6.703,1.074c-1.849-0.838-2.619-2.63-3.129-4.273c-0.685-2.205-0.896-4.607-0.646-7.342
			c0.571-6.225,2.301-11.813,5.139-16.613c1.045-1.768,2.377-3.343,3.66-4.78c0.565-0.635,1.422-1.189,2.541-1.648
			c4.666-1.324,4.767,4.778,4.767,4.778l0.005,0.003c-1.688,1.691-2.702,3.87-3.268,7.044
			C282.309,155.471,282.559,158.822,283.857,161.77z"/>
		<path fill="#88C652" d="M232.969,160.104c0,0-0.134,1.151-0.543,2.969c-0.737,3.266-4.429,11.769-10.951,10.617
			c-4.2-0.74-3.565-10.043-2.661-16.211c0.283-1.935,0.594-3.563,0.799-4.564c0.345-1.572,0.73-3.139,1.119-4.663
			c0.367-1.436,0.734-2.874,1.057-4.319c0.857-3.828-0.686-6.76-4.126-7.847c-0.708-0.224-1.451-0.377-2.235-0.54
			c-0.161-0.034-0.324-0.069-0.488-0.104l-0.647,2.564c-0.062,0.249-0.258,0.442-0.507,0.5c-0.25,0.062-0.511-0.027-0.678-0.221
			c-1.988-2.317-5.083-3.646-8.49-3.646c-1.81,0-3.539,0.382-4.869,1.073c-2.588,1.347-4.702,3.515-6.649,6.819
			c-4.653,7.896-6.68,16.588-6.024,25.833c0.273,3.867,1.31,7.021,3.169,9.643c1.554,2.189,4.082,3.499,6.763,3.499
			c6.603,0.681,11.333-10.708,13.232-16.248l0.06,0.011c0.044,0.006,0.087,0.025,0.13,0.041c-0.195,5.955,2.102,16.023,9.966,16.207
			c10.933,0.254,13.795-15.274,13.795-15.274L232.969,160.104z M206.339,166.918c-0.938,1.811-2.276,3.527-3.771,4.837
			c-0.971,0.853-2.017,1.306-3.023,1.306c-1.843,0-3.253-1.463-3.679-3.818c-0.154-0.855-0.22-1.733-0.279-2.506
			c-0.024-0.327-0.048-0.644-0.078-0.944c0.47-8.364,2.743-15.754,6.948-22.699c0.578-0.951,1.42-1.906,2.508-2.841
			c1.03-0.886,2.505-1.393,4.048-1.393c1.232,0,2.43,0.324,3.37,0.912c0.635,0.396,1.454,1.087,1.229,2.513
			C212.42,149.827,210.624,158.652,206.339,166.918z"/>
		<g>
			<g>
				<path fill="#88C652" d="M239.839,162.859c0.01-0.006,0.02-0.014,0.03-0.021c0.01-0.328,0.023-0.657,0.039-0.987
					C239.86,162.503,239.839,162.859,239.839,162.859z"/>
				<path fill="#88C652" d="M241.022,151.67l-0.005,0.004c0,0-0.868,5.073-1.109,10.18c0.1-1.34,0.319-3.94,0.737-7.348
					C240.767,153.57,240.897,152.616,241.022,151.67z"/>
			</g>
			<path fill="#88C652" d="M249.003,146.557c0,0-4.194,12.726-11.114,22.175l0.691,3.068l0.833,1.018
				c0,0,8.475-10.967,13.556-25.535L249.003,146.557z"/>
			<g>
				<path fill="#88C652" d="M263.527,163.369c-1.34,2.584-3.5,6.268-6.226,9.197c-0.987,1.063-2.051,2.022-3.173,2.797
					c-1.715,1.182-3.568,1.926-5.518,1.9c-5.452-0.065-7.508-4.037-8.272-7.756c-0.001-0.004-0.003-0.007-0.004-0.011
					c-0.445-1.757-0.542-4.172-0.467-6.658c-0.01,0.007-0.02,0.015-0.03,0.021c0,0,0.021-0.356,0.069-1.008
					c0.241-5.104,1.109-10.179,1.109-10.179l0.005-0.004c0.375-2.827,0.762-5.676,1.204-8.502
					c1.518-9.712,3.625-19.197,6.264-28.191c0.813-2.779,1.833-5.538,2.818-8.206l0.477-1.292c0.285-0.78,0.757-1.569,1.441-2.413
					c0.516-0.638,1.028-0.771,1.367-0.771c0.547,0,1.204,0.374,1.414,1.422c0.277,1.382,0.525,2.865,0.45,4.337
					c-0.675,13.15-3.32,26.343-8.02,40.202c0.006-0.002,0.028-0.012,0.028-0.012s-0.08,0.305-0.236,0.824l3.293,1.723
					c0.061-0.144,0.125-0.287,0.187-0.43c5.151-12.101,8.103-24.349,8.767-36.403c0.242-4.392,0.228-9.054-1.51-13.382
					c-1.046-2.61-2.927-4.108-5.16-4.108c0,0-0.197,0.007-0.52,0.056c-0.774,0.079-1.557,0.331-2.326,0.751
					c-2.449,1.155-5.968,3.978-8.459,10.945c0,0.002-0.001,0.003-0.001,0.004c-2.853,6.801-8.042,21.294-9.458,39.531
					c-0.239,3.079-0.292,6.104-0.216,9.014c0.024,0.069,3.155,9.137,3.155,10.594c0,1.463-0.945,4.979-0.945,4.979
					c1.618,3.579,5.278,8.641,13.121,9.148c3.045,0.197,5.713-0.682,8.005-2.111c3.563-2.225,6.209-6.331,7.942-9.796
					L263.527,163.369z"/>
				<polygon fill="#88C652" points="235.034,172.341 235.034,172.34 235.034,172.34 				"/>
				<path fill="#88C652" d="M232.825,156.768c0.081,3.07,0.305,6.016,0.619,8.756c-0.009,0.01-0.019,0.02-0.027,0.027
					c0.327,2.417,0.833,4.893,1.618,6.789l0,0c0,0,0.945-3.516,0.945-4.979C235.979,165.904,232.849,156.838,232.825,156.768z"/>
			</g>
			<path fill="#88C652" d="M232.825,156.768c0,0,0.178,6.674,0.671,9.346c0.492,2.672,4.394-0.742,4.394-0.742l-1.463-5.812
				L232.825,156.768z"/>
		</g>
		<g>
			<path fill="#88C652" d="M348.628,126.257c0.055,0.001,0.109,0.01,0.16,0.026c0.491,0.156,0.739-0.243,1.166-0.967
				c1.668-2.816,2.569-5.847,3.304-8.715c0.271-1.059,0.052-1.872-0.712-2.638c-1.386-1.389-3.127-2.267-5.178-2.607
				c-0.484-0.08-0.901-0.12-1.274-0.12c-1.472,0-2.175,0.596-2.595,2.198c-0.84,3.212-0.732,6.397,0.321,9.465
				C344.517,124.925,346.358,126.211,348.628,126.257z"/>
			<path fill="#88C652" d="M361.324,154.91c-0.817,3.564-1.849,7.227-3.624,10.645c-1.162,2.234-2.479,4.562-4.655,6.258
				c-1.117,0.869-2.339,1.33-3.529,1.33c-2.217,0-4.001-1.561-4.654-4.074c-0.173-0.659-0.282-1.398-0.348-2.327
				c-0.26-3.765,0.111-7.812,1.17-12.732c0.355-1.653,0.748-3.298,1.142-4.943c0.63-2.637,1.35-4.569,1.825-7.269
				c0.466-2.656-0.508-4.872-2.537-5.781c-1.369-0.612-2.895-1.009-4.367-1.392l-0.77-0.202c-0.077,0.054-0.173,0.138-0.201,0.188
				c-1.405,7.199-2.663,12.537-3.806,18.792c-0.169,0.923-0.295,1.853-0.421,2.779c-0.044,0.325-0.088,0.651-0.134,0.979
				c-0.287,2.263-0.884,8.081-0.236,13.263l0.037,0.252c0.171,1.212,0.426,2.646,0.916,4.097c0.008,0.022,0.016,0.047,0.022,0.07
				c0.301,0.876,0.688,1.758,1.195,2.602c1.562,2.586,4.194,4.131,7.041,4.131c0.964,0,1.894-0.188,2.77-0.538
				c0.011-0.002,0.021-0.004,0.031-0.006c5.764-1.541,10.562-11.356,12.324-15.413c0.129,0.083,0.235,0.193,0.285,0.345
				c0.119,0.358,0.236,0.735,0.354,1.119C360.184,163.086,360.708,158.266,361.324,154.91z"/>
		</g>
		<path fill="#88C652" d="M344.208,174.842c-0.009-0.023-0.016-0.048-0.023-0.07C344.192,174.795,344.199,174.818,344.208,174.842z"
			/>
		<path fill="#88C652" d="M336.566,161.938c0,0-3.892,15.43-11.445,13.877c-6.951-1.43-2.91-20.144-2.233-22.959l0.015,0.004
			c0.027-0.133,0.054-0.256,0.082-0.395c0.326-1.555,0.181-2.016-0.869-2.736c-0.969-0.667-1.939-1.184-2.886-1.541
			c-3.448-1.303-5.296-1.581-8.706-2.791l-0.524-0.186c-0.479-0.17-1.376-0.486-1.149-1.92c0.216-1.374,0.417-2.752,0.62-4.129
			c0.169-1.15,0.272-1.872,0.444-2.989l0,0c0,0,0.113-0.838-0.75-1.252c-1.103-0.592-3.055-1.368-4.598-0.498
			c-2.25,1.269-3.866,5.803-0.904,9.495c0.034,0.042,0.051,0.098,0.079,0.146c0.125,0.207,0.258,0.354,0.396,0.457
			c0.049,0.056,0.092,0.113,0.135,0.169h-0.002c0,0,0.006,0.008,0.011,0.012c0.021,0.026,0.038,0.052,0.061,0.077l0.007,0.003
			c0.143,0.191,0.407,0.681,0.178,1.448c-0.182,0.598-0.372,1.208-0.582,1.838l-0.021-0.006c-1.099,3.042-2.411,5.491-3.817,7.463
			c-0.002,0.002-0.002,0.004-0.004,0.006c-0.227,0.316-0.455,0.611-0.686,0.902c-0.172,0.217-0.363,0.449-0.574,0.696
			c-0.023,0.028-0.049,0.058-0.072,0.086c-0.248,0.287-0.521,0.589-0.814,0.896c-0.076,0.08-0.152,0.162-0.229,0.238
			c-0.115,0.117-0.231,0.234-0.354,0.353c-0.754,0.724-1.511,1.34-2.258,1.868c-2.002,1.369-4.383,2.207-6.797,1.308l-1,4.084
			c0.434,0.14,0.861,0.231,1.287,0.292c0.022,0.005,0.048,0.012,0.064,0.016c0.031,0.002,0.057,0.002,0.059,0.002
			c0.629,0.082,1.268,0.084,1.896,0.002c1.823-0.15,3.601-0.732,5.299-1.733c6.745-3.966,9.238-9.06,11.291-14.352
			c0.273-0.705,0.492-1.307,0.661-1.786l0,0c0,0,0.353-1.065,1.146-0.602l0.312,0.201l0,0l4.529,1.739l3.408,1.062
			c-4.926,10.779-6.308,28.989,5.271,30.808c11.585,1.822,14.329-14.902,14.329-14.902L336.566,161.938z"/>
	</g>
</g>
</svg>
